<?xml version="1.0" encoding="UTF-8" standalone="no"?>
<svg
   width="64"
   height="64"
   viewBox="0 0 16.933333 16.933333"
   version="1.1"
   id="svg8"
   xmlns="http://www.w3.org/2000/svg">
  <g id="layer1">
    <!-- Gear outline/hub background -->
    <path d="M 8.466,5.0 A 3.466,3.466 0 0 0 5.0,8.466 3.466,3.466 0 0 0 8.466,11.933 3.466,3.466 0 0 0 11.933,8.466 3.466,3.466 0 0 0 8.466,5.0 Z M 8.466,6.5 A 1.966,1.966 0 0 1 10.433,8.466 1.966,1.966 0 0 1 8.466,10.433 1.966,1.966 0 0 1 6.5,8.466 1.966,1.966 0 0 1 8.466,6.5 Z" fill="#333333" />
    
    <!-- Screwdriver handle (blue) -->
    <path d="M 2.5,14.4 L 5.5,11.4" stroke="#007acc" stroke-width="2.2" stroke-linecap="round" />
    <!-- Screwdriver shaft & tip (gray) -->
    <path d="M 5.5,11.4 L 11.5,5.4" stroke="#808080" stroke-width="0.8" stroke-linecap="round" />
    <path d="M 11.0,4.9 L 12.0,5.9" stroke="#808080" stroke-width="1.2" stroke-linecap="round" />

    <!-- Wrench (accented) -->
    <!-- Wrench shaft -->
    <path d="M 13.5,13.5 L 8.0,8.0" stroke="#333333" stroke-width="1.6" stroke-linecap="round" />
    <!-- Wrench head -->
    <circle cx="13.5" cy="13.5" r="2.0" fill="#333333" />
    <circle cx="13.5" cy="13.5" r="1.0" fill="#FFFFFF" />
    <path d="M 12.5,12.5 L 14.5,14.5" stroke="#FFFFFF" stroke-width="1.0" />
    <circle cx="5.5" cy="5.5" r="2.0" fill="#007acc" />
    <circle cx="5.5" cy="5.5" r="1.0" fill="#FFFFFF" />
  </g>
</svg>
