<?xml version="1.0" encoding="UTF-8" standalone="no"?>
<svg
   width="64"
   height="64"
   viewBox="0 0 16.933333 16.933333"
   version="1.1"
   id="svg8"
   xmlns="http://www.w3.org/2000/svg">
  <g id="layer1">
    <!-- Ruler body -->
    <rect
       style="fill:#f0f0f0;stroke:#333333;stroke-width:0.8;stroke-linejoin:round;stroke-linecap:round"
       id="rect1"
       width="14.5"
       height="4.5"
       x="1.2"
       y="9.0"
       rx="0.5"
       ry="0.5" />
    <!-- Ruler markings -->
    <line x1="2.5" y1="9.0" x2="2.5" y2="10.5" stroke="#333333" stroke-width="0.4" />
    <line x1="4.0" y1="9.0" x2="4.0" y2="10.0" stroke="#333333" stroke-width="0.3" />
    <line x1="5.5" y1="9.0" x2="5.5" y2="10.0" stroke="#333333" stroke-width="0.3" />
    <line x1="7.0" y1="9.0" x2="7.0" y2="10.5" stroke="#333333" stroke-width="0.4" />
    <line x1="8.5" y1="9.0" x2="8.5" y2="10.0" stroke="#333333" stroke-width="0.3" />
    <line x1="10.0" y1="9.0" x2="10.0" y2="10.0" stroke="#333333" stroke-width="0.3" />
    <line x1="11.5" y1="9.0" x2="11.5" y2="10.5" stroke="#333333" stroke-width="0.4" />
    <line x1="13.0" y1="9.0" x2="13.0" y2="10.0" stroke="#333333" stroke-width="0.3" />
    <line x1="14.5" y1="9.0" x2="14.5" y2="10.0" stroke="#333333" stroke-width="0.3" />

    <!-- Dimension line above ruler -->
    <line x1="1.2" y1="4.5" x2="15.7" y2="4.5" stroke="#007acc" stroke-width="0.5" />
    <!-- Left Arrow -->
    <path d="M 1.2,4.5 L 3.2,3.5 L 3.2,5.5 Z" fill="#007acc" />
    <!-- Right Arrow -->
    <path d="M 15.7,4.5 L 13.7,3.5 L 13.7,5.5 Z" fill="#007acc" />
    <!-- Extension lines -->
    <line x1="1.2" y1="5.5" x2="1.2" y2="8.5" stroke="#007acc" stroke-width="0.3" stroke-dasharray="0.8,0.8" />
    <line x1="15.7" y1="5.5" x2="15.7" y2="8.5" stroke="#007acc" stroke-width="0.3" stroke-dasharray="0.8,0.8" />
  </g>
</svg>
