<?xml version="1.0" encoding="UTF-8" standalone="no"?>
<svg
   width="64"
   height="64"
   viewBox="0 0 16.933333 16.933333"
   version="1.1"
   id="svg8"
   xmlns="http://www.w3.org/2000/svg">
  <g id="layer1">
    <!-- Stand -->
    <path d="M 8.46,14.5 L 8.46,5.5" stroke="#333333" stroke-width="0.8" stroke-linecap="round" />
    <path d="M 5.5,14.5 L 11.5,14.5" stroke="#333333" stroke-width="0.8" stroke-linecap="round" />

    <!-- Balance beam (horizontal) -->
    <path d="M 3.5,5.5 L 13.4,5.5" stroke="#333333" stroke-width="0.8" stroke-linecap="round" />

    <!-- Left hanger and pan -->
    <path d="M 3.5,5.5 L 2.0,9.5 L 5.0,9.5 Z" fill="none" stroke="#333333" stroke-width="0.5" stroke-linejoin="round" />
    <!-- 3D Cube representing mass on left side -->
    <path d="M 2.7,9.0 L 4.3,9.0 L 4.3,7.4 L 2.7,7.4 Z" fill="#007acc" stroke="#0059b3" stroke-width="0.3" />
    <path d="M 4.3,7.4 L 4.8,6.9 L 4.8,8.5 L 4.3,9.0 Z" fill="#0059b3" stroke="#0059b3" stroke-width="0.3" />
    <path d="M 2.7,7.4 L 3.2,6.9 L 4.8,6.9 L 4.3,7.4 Z" fill="#3399ff" stroke="#0059b3" stroke-width="0.3" />

    <!-- Right hanger and pan -->
    <path d="M 13.4,5.5 L 11.9,9.5 L 14.9,9.5 Z" fill="none" stroke="#333333" stroke-width="0.5" stroke-linejoin="round" />
    <!-- Weight cylinder on right side -->
    <ellipse cx="13.4" cy="9.0" rx="0.8" ry="0.3" fill="#8c8c8c" stroke="#595959" stroke-width="0.3" />
    <path d="M 12.6,9.0 L 12.6,7.8 A 0.8,0.3 0 0 1 14.2,7.8 L 14.2,9.0 Z" fill="#8c8c8c" stroke="#595959" stroke-width="0.3" />
    <ellipse cx="13.4" cy="7.8" rx="0.8" ry="0.3" fill="#b3b3b3" stroke="#595959" stroke-width="0.3" />
  </g>
</svg>
